<?xml version="1.0" standalone="no"?>
<!DOCTYPE svg PUBLIC "-//W3C//DTD SVG 20010904//EN" "http://www.w3.org/TR/2001/REC-SVG-20010904/DTD/svg10.dtd">
<svg version="1.0" xmlns="http://www.w3.org/2000/svg" width="512pt" height="512pt" viewBox="0 0 512 512" preserveAspectRatio="xMidYMid meet">
    <g transform="translate(0,512) scale(0.1,-0.1)" fill="#000000" stroke="none">
        <path d="M2340 4480 c-494 -48 -950 -251 -1315 -583 -391 -355 -640 -826 -725
        -1372 -27 -176 -27 -474 0 -650 85 -546 334 -1017 725 -1372 355 -323 783
        -519 1255 -574 176 -21 474 -21 650 0 472 55 900 251 1255 574 391 355 640
        826 725 1372 27 176 27 474 0 650 -85 546 -334 1017 -725 1372 -365 332 -821
        535 -1315 583 -161 15 -369 15 -530 0z m1593 -1650 c77 -39 127 -127 127 -223
        0 -77 -24 -135 -75 -183 -53 -50 -103 -69 -180 -69 -77 0 -127 19 -180 69 -51
        48 -75 106 -75 183 0 77 24 135 75 183 53 50 103 69 180 69 37 0 66 -7 128
        -29z m-2646 -27 c81 -41 133 -134 133 -233 0 -99 -52 -192 -133 -233 -62 -32
        -158 -32 -220 0 -81 41 -133 134 -133 233 0 99 52 192 133 233 30 15 67 22
        110 22 43 0 80 -7 110 -22z"/>
    </g>
</svg>
